<?xml version="1.0" encoding="UTF-8"?>
<!-- Generator: Adobe Illustrator 16.0.0, SVG Export Plug-In . SVG Version: 6.00 Build 0)  -->
<!DOCTYPE svg PUBLIC "-//W3C//DTD SVG 1.1//EN" "http://www.w3.org/Graphics/SVG/1.1/DTD/svg11.dtd">
<svg version="1.1" xmlns="http://www.w3.org/2000/svg" xmlns:xlink="http://www.w3.org/1999/xlink" x="0px" y="0px" width="792px" height="612px" viewBox="0 0 792 612" enable-background="new 0 0 792 612" xml:space="preserve">
<g id="Base_block">
	<path d="M240.5,379.939V449.7c0,15.84,12.96,28.8,28.8,28.8h254.4c15.84,0,28.8-12.96,28.8-28.8v-69.761H240.5z"/>
</g>
<g id="Type">
	
		<text transform="matrix(1.0861 0 0 1 252.5537 462.7832)" fill="#FFFFFF" font-family="'Orbitron-Light'" font-size="30.4228" letter-spacing="5.525">makerspace</text>
	
		<text transform="matrix(1.0762 0 0 1.1 251.001 432.1914)" fill="#FFFFFF" font-family="'Orbitron-Black'" font-size="51.7187" letter-spacing="1.858">hack.rva</text>
</g>
<g id="Circles_fat">
	<g>
		<path d="M523.7,136.5h-19.132c17.495,15.823,33.548,33.211,47.932,51.948V165.3C552.5,149.46,539.54,136.5,523.7,136.5z"/>
		<path d="M552.5,326.183v-79.55c-25.085-43.295-59.009-80.83-99.307-110.132h-61.719    C467.483,175.506,526.061,243.652,552.5,326.183z"/>
		<path d="M286.644,136.5H269.3c-15.84,0-28.8,12.96-28.8,28.8v0.506c1.036-0.012,2.069-0.039,3.108-0.039    c124.694,0,228.828,87.972,253.761,205.233h33.074C507.632,249.574,409.643,154.678,286.644,136.5z"/>
		<path d="M243.608,198.197c-1.039,0-2.072,0.025-3.108,0.04v32.431c1.035-0.016,2.069-0.039,3.108-0.039    c88.651,0,163.447,59.287,186.925,140.371h33.562C439.786,271.803,350.3,198.197,243.608,198.197z"/>
		<path d="M243.608,263.062c-1.039,0-2.074,0.02-3.108,0.04v32.431c1.033-0.024,2.069-0.039,3.108-0.039    c52.29,0,97.346,30.939,117.879,75.507h34.981C374.16,308.107,314.149,263.062,243.608,263.062z"/>
		<path d="M243.608,327.924c-1.041,0-2.076,0.022-3.108,0.055V371h83.905C306.936,345.02,277.269,327.924,243.608,327.924z"/>
	</g>
</g>
</svg>